<svg width="270" height="149" viewBox="0 0 270 149" fill="none" xmlns="http://www.w3.org/2000/svg">
<g clip-path="url(#clip0_52_1858)">
<path d="M223.245 10.8032H195.9V97.4687H223.245V10.8032Z" fill="#FF9A6C"/>
<path d="M223.248 10.8032H209.574V97.2321H223.248V10.8032Z" fill="#FFCAAD"/>
<path d="M208.678 2.29565H199.023V10.8034H208.678V2.29565Z" fill="#FF9A6C"/>
<path d="M208.682 2.29565H206.38V10.8034H208.682V2.29565Z" fill="#FFCAAD"/>
<path d="M193.62 10.8034V10.3086H224.048V10.8034" fill="#FFF2EB"/>
<path d="M203.616 14.5142H201.3V19.3936H203.616V14.5142Z" fill="white"/>
<path d="M209.574 21.3115C209.574 21.3617 206.512 21.4047 202.737 21.4047C198.962 21.4047 195.9 21.3617 195.9 21.3115C195.9 21.2613 198.962 21.2183 202.737 21.2183C206.512 21.2183 209.574 21.2613 209.574 21.3115Z" fill="#FFF2EB"/>
<path d="M217.408 14.5142H215.092V19.3936H217.408V14.5142Z" fill="#FFF2EB"/>
<path d="M223.367 21.3117C223.367 21.3619 220.305 21.4049 216.53 21.4049C212.755 21.4049 209.693 21.3619 209.693 21.3117C209.693 21.2615 212.755 21.2185 216.53 21.2185C220.305 21.2185 223.367 21.2615 223.367 21.3117Z" fill="#FFF2EB"/>
<path d="M217.408 24.2048H215.092V29.0843H217.408V24.2048Z" fill="#FFF2EB"/>
<path d="M223.367 31.0024C223.367 31.0526 220.305 31.0956 216.53 31.0956C212.755 31.0956 209.693 31.0526 209.693 31.0024C209.693 30.9522 212.755 30.9092 216.53 30.9092C220.305 30.9092 223.367 30.9522 223.367 31.0024Z" fill="#FFF2EB"/>
<path d="M217.408 34.1863H215.092V39.0658H217.408V34.1863Z" fill="#FFF2EB"/>
<path d="M223.367 40.9838C223.367 41.034 220.305 41.0771 216.53 41.0771C212.755 41.0771 209.693 41.034 209.693 40.9838C209.693 40.9336 212.755 40.8906 216.53 40.8906C220.305 40.8906 223.367 40.9336 223.367 40.9838Z" fill="#FFF2EB"/>
<path d="M217.408 44.1709H215.092V49.0504H217.408V44.1709Z" fill="#FFF2EB"/>
<path d="M223.367 50.9685C223.367 51.0187 220.305 51.0617 216.53 51.0617C212.755 51.0617 209.693 51.0187 209.693 50.9685C209.693 50.9183 212.755 50.8752 216.53 50.8752C220.305 50.8752 223.367 50.9183 223.367 50.9685Z" fill="#FFF2EB"/>
<path d="M217.408 53.8691H215.092V58.7486H217.408V53.8691Z" fill="#FFF2EB"/>
<path d="M223.367 60.663C223.367 60.7132 220.305 60.7563 216.53 60.7563C212.755 60.7563 209.693 60.7132 209.693 60.663C209.693 60.6129 212.755 60.5698 216.53 60.5698C220.305 60.5698 223.367 60.6129 223.367 60.663Z" fill="#FFF2EB"/>
<path d="M217.408 63.6028H215.092V68.4823H217.408V63.6028Z" fill="#FFF2EB"/>
<path d="M217.408 73.4695H215.092V78.349H217.408V73.4695Z" fill="#FFF2EB"/>
<path d="M223.367 70.4006C223.367 70.4508 220.305 70.4938 216.53 70.4938C212.755 70.4938 209.693 70.4508 209.693 70.4006C209.693 70.3504 212.755 70.3074 216.53 70.3074C220.305 70.3074 223.367 70.3504 223.367 70.4006Z" fill="#FFF2EB"/>
<path d="M203.616 24.3518H201.3V29.2313H203.616V24.3518Z" fill="white"/>
<path d="M209.574 31.1496C209.574 31.1998 206.512 31.2428 202.737 31.2428C198.962 31.2428 195.9 31.1998 195.9 31.1496C195.9 31.0994 198.962 31.0564 202.737 31.0564C206.512 31.0564 209.574 31.0994 209.574 31.1496Z" fill="#FFF2EB"/>
<path d="M203.616 34.1897H201.3V39.0692H203.616V34.1897Z" fill="white"/>
<path d="M209.574 40.9873C209.574 41.0375 206.512 41.0805 202.737 41.0805C198.962 41.0805 195.9 41.0375 195.9 40.9873C195.9 40.9371 198.962 40.894 202.737 40.894C206.512 40.894 209.574 40.9371 209.574 40.9873Z" fill="#FFF2EB"/>
<path d="M203.616 44.0276H201.3V48.9071H203.616V44.0276Z" fill="white"/>
<path d="M209.574 50.8254C209.574 50.8756 206.512 50.9186 202.737 50.9186C198.962 50.9186 195.9 50.8756 195.9 50.8254C195.9 50.7752 198.962 50.7322 202.737 50.7322C206.512 50.7322 209.574 50.7752 209.574 50.8254Z" fill="#FFF2EB"/>
<path d="M203.616 53.8691H201.3V58.7486H203.616V53.8691Z" fill="white"/>
<path d="M209.574 60.663C209.574 60.7132 206.512 60.7563 202.737 60.7563C198.962 60.7563 195.9 60.7132 195.9 60.663C195.9 60.6129 198.962 60.5698 202.737 60.5698C206.512 60.5698 209.574 60.6129 209.574 60.663Z" fill="#FFF2EB"/>
<path d="M203.616 63.7068H201.3V68.5863H203.616V63.7068Z" fill="white"/>
<path d="M209.574 70.5007C209.574 70.5509 206.512 70.5939 202.737 70.5939C198.962 70.5939 195.9 70.5509 195.9 70.5007C195.9 70.4505 198.962 70.4075 202.737 70.4075C206.512 70.4075 209.574 70.4505 209.574 70.5007Z" fill="#FFF2EB"/>
<path d="M203.616 73.5447H201.3V78.4242H203.616V73.5447Z" fill="white"/>
<path d="M255.046 48.0359H222.729V150.455H255.046V48.0359Z" fill="#FF9A6C"/>
<path d="M255.046 49.3804H238.887V150.458H255.046V49.3804Z" fill="#FFCAAD"/>
<path d="M237.833 39.324H226.421V49.3805H237.833V39.324Z" fill="#FF9A6C"/>
<path d="M237.833 39.324H235.112V49.3805H237.833V39.324Z" fill="#FFCAAD"/>
<path d="M220.036 49.3805V48.7925H255.992V49.3805" fill="#FFF2EB"/>
<path d="M231.846 53.7651H229.11V59.5338H231.846V53.7651Z" fill="white"/>
<path d="M238.887 61.796C238.887 61.8569 235.27 61.9071 230.81 61.9071C226.35 61.9071 222.729 61.8569 222.729 61.796C222.729 61.735 226.346 61.6848 230.81 61.6848C235.273 61.6848 238.887 61.735 238.887 61.796Z" fill="#FFF2EB"/>
<path d="M248.144 53.7651H245.409V59.5338H248.144V53.7651Z" fill="#FFF2EB"/>
<path d="M255.185 61.796C255.185 61.8569 251.568 61.9071 247.108 61.9071C242.648 61.9071 239.027 61.8569 239.027 61.796C239.027 61.735 242.644 61.6848 247.108 61.6848C251.572 61.6848 255.185 61.735 255.185 61.796Z" fill="#FFF2EB"/>
<path d="M248.144 65.2163H245.409V70.9849H248.144V65.2163Z" fill="#FFF2EB"/>
<path d="M255.185 73.2471C255.185 73.3081 251.568 73.3583 247.108 73.3583C242.648 73.3583 239.027 73.3081 239.027 73.2471C239.027 73.1862 242.644 73.136 247.108 73.136C251.572 73.136 255.185 73.1862 255.185 73.2471Z" fill="#FFF2EB"/>
<path d="M248.144 77.0115H245.409V82.7801H248.144V77.0115Z" fill="#FFF2EB"/>
<path d="M255.185 85.046C255.185 85.1069 251.568 85.1571 247.108 85.1571C242.648 85.1571 239.027 85.1069 239.027 85.046C239.027 84.985 242.644 84.9348 247.108 84.9348C251.572 84.9348 255.185 84.985 255.185 85.046Z" fill="#FFF2EB"/>
<path d="M248.144 88.8105H245.409V94.5792H248.144V88.8105Z" fill="#FFF2EB"/>
<path d="M255.185 96.8414C255.185 96.9023 251.568 96.9525 247.108 96.9525C242.648 96.9525 239.027 96.9023 239.027 96.8414C239.027 96.7804 242.644 96.7302 247.108 96.7302C251.572 96.7302 255.185 96.7804 255.185 96.8414Z" fill="#FFF2EB"/>
<path d="M248.144 100.269H245.409V106.038H248.144V100.269Z" fill="#FFF2EB"/>
<path d="M255.185 108.3C255.185 108.361 251.568 108.411 247.108 108.411C242.648 108.411 239.027 108.361 239.027 108.3C239.027 108.239 242.644 108.189 247.108 108.189C251.572 108.189 255.185 108.239 255.185 108.3Z" fill="#FFF2EB"/>
<path d="M248.144 111.778H245.409V117.546H248.144V111.778Z" fill="#FFF2EB"/>
<path d="M248.144 123.433H245.409V129.202H248.144V123.433Z" fill="#FFF2EB"/>
<path d="M255.185 119.808C255.185 119.869 251.568 119.92 247.108 119.92C242.648 119.92 239.027 119.869 239.027 119.808C239.027 119.747 242.644 119.697 247.108 119.697C251.572 119.697 255.185 119.747 255.185 119.808Z" fill="#FFF2EB"/>
<path d="M231.846 65.3921H229.11V71.1607H231.846V65.3921Z" fill="white"/>
<path d="M238.887 73.4229C238.887 73.4839 235.27 73.534 230.81 73.534C226.35 73.534 222.729 73.4839 222.729 73.4229C222.729 73.362 226.346 73.3118 230.81 73.3118C235.273 73.3118 238.887 73.362 238.887 73.4229Z" fill="#FFF2EB"/>
<path d="M231.846 77.0154H229.11V82.784H231.846V77.0154Z" fill="white"/>
<path d="M238.887 85.0499C238.887 85.1108 235.27 85.161 230.81 85.161C226.35 85.161 222.729 85.1108 222.729 85.0499C222.729 84.9889 226.346 84.9387 230.81 84.9387C235.273 84.9387 238.887 84.9889 238.887 85.0499Z" fill="#FFF2EB"/>
<path d="M231.846 88.6423H229.11V94.4109H231.846V88.6423Z" fill="white"/>
<path d="M238.887 96.6768C238.887 96.7378 235.27 96.788 230.81 96.788C226.35 96.788 222.729 96.7378 222.729 96.6768C222.729 96.6159 226.346 96.5657 230.81 96.5657C235.273 96.5657 238.887 96.6159 238.887 96.6768Z" fill="#FFF2EB"/>
<path d="M231.846 100.269H229.11V106.037H231.846V100.269Z" fill="white"/>
<path d="M238.887 108.3C238.887 108.361 235.27 108.411 230.81 108.411C226.35 108.411 222.729 108.361 222.729 108.3C222.729 108.239 226.346 108.189 230.81 108.189C235.273 108.189 238.887 108.239 238.887 108.3Z" fill="#FFF2EB"/>
<path d="M231.846 111.896H229.11V117.664H231.846V111.896Z" fill="white"/>
<path d="M238.887 119.927C238.887 119.988 235.27 120.038 230.81 120.038C226.35 120.038 222.729 119.988 222.729 119.927C222.729 119.866 226.346 119.816 230.81 119.816C235.273 119.816 238.887 119.866 238.887 119.927Z" fill="#FFF2EB"/>
<path d="M231.846 123.523H229.11V129.291H231.846V123.523Z" fill="white"/>
<path d="M230.759 150.455H188.698L188.515 83.9778H230.577L230.759 150.455Z" fill="#FF9A6C"/>
<path d="M230.577 83.9778H209.546V150.455H230.577V83.9778Z" fill="#FFCAAD"/>
<path d="M208.173 70.8916H193.319V83.9776H208.173V70.8916Z" fill="#FF9A6C"/>
<path d="M208.169 70.8916H204.63V83.9776H208.169V70.8916Z" fill="#FFCAAD"/>
<path d="M231.806 83.2139H185.009V83.9775H231.806V83.2139Z" fill="#FFF2EB"/>
<path d="M200.378 89.6853H196.818V97.1928H200.378V89.6853Z" fill="white"/>
<path d="M209.546 100.14C209.546 100.219 204.838 100.283 199.03 100.283C193.222 100.283 188.515 100.219 188.515 100.14C188.515 100.061 193.222 99.9963 199.03 99.9963C204.838 99.9963 209.546 100.061 209.546 100.14Z" fill="#FFF2EB"/>
<path d="M221.592 89.6855H218.032V97.193H221.592V89.6855Z" fill="#FF9A6C"/>
<path d="M230.76 100.14C230.76 100.219 226.052 100.283 220.244 100.283C214.436 100.283 209.729 100.219 209.729 100.14C209.729 100.061 214.436 99.9966 220.244 99.9966C226.052 99.9966 230.76 100.061 230.76 100.14Z" fill="#FFF2EB"/>
<path d="M221.592 104.593H218.032V112.1H221.592V104.593Z" fill="#FF9A6C"/>
<path d="M230.76 115.044C230.76 115.122 226.052 115.187 220.244 115.187C214.436 115.187 209.729 115.122 209.729 115.044C209.729 114.965 214.436 114.9 220.244 114.9C226.052 114.9 230.76 114.965 230.76 115.044Z" fill="#FFF2EB"/>
<path d="M221.592 119.944H218.032V127.452H221.592V119.944Z" fill="#FF9A6C"/>
<path d="M230.76 130.399C230.76 130.478 226.052 130.542 220.244 130.542C214.436 130.542 209.729 130.478 209.729 130.399C209.729 130.32 214.436 130.256 220.244 130.256C226.052 130.256 230.76 130.32 230.76 130.399Z" fill="#FFF2EB"/>
<path d="M221.592 135.3H218.032V142.807H221.592V135.3Z" fill="#FF9A6C"/>
<path d="M230.76 145.754C230.76 145.833 226.052 145.898 220.244 145.898C214.436 145.898 209.729 145.833 209.729 145.754C209.729 145.675 214.436 145.611 220.244 145.611C226.052 145.611 230.76 145.675 230.76 145.754Z" fill="#FFF2EB"/>
<path d="M200.378 104.818H196.818V112.326H200.378V104.818Z" fill="white"/>
<path d="M209.546 115.273C209.546 115.352 204.838 115.416 199.03 115.416C193.222 115.416 188.515 115.352 188.515 115.273C188.515 115.194 193.222 115.13 199.03 115.13C204.838 115.13 209.546 115.194 209.546 115.273Z" fill="#FFF2EB"/>
<path d="M200.378 119.952H196.818V127.459H200.378V119.952Z" fill="white"/>
<path d="M209.546 130.406C209.546 130.485 204.838 130.55 199.03 130.55C193.222 130.55 188.515 130.485 188.515 130.406C188.515 130.327 193.222 130.263 199.03 130.263C204.838 130.263 209.546 130.327 209.546 130.406Z" fill="#FFF2EB"/>
<path d="M200.378 135.085H196.818V142.592H200.378V135.085Z" fill="white"/>
<path d="M209.546 145.539C209.546 145.618 204.838 145.683 199.03 145.683C193.222 145.683 188.515 145.618 188.515 145.539C188.515 145.461 193.222 145.396 199.03 145.396C204.838 145.396 209.546 145.461 209.546 145.539Z" fill="#FFF2EB"/>
<path d="M72.6657 9.47314H41.019V109.766H72.6657V9.47314Z" fill="#FF9A6C"/>
<path d="M72.662 9.47314H56.8405V109.49H72.662V9.47314Z" fill="#FFCAAD"/>
<path d="M55.8079 -0.371826H44.6328V9.47318H55.8079V-0.371826Z" fill="#FF9A6C"/>
<path d="M55.8079 -0.371826H53.144V9.47318H55.8079V-0.371826Z" fill="#FFCAAD"/>
<path d="M38.3803 9.47305V8.89941H73.5907V9.47305" fill="#FFF2EB"/>
<path d="M49.9427 13.7683H47.2645V19.415H49.9427V13.7683Z" fill="white"/>
<path d="M56.8405 21.6342C56.8405 21.6951 53.2983 21.7417 48.928 21.7417C44.5576 21.7417 41.0154 21.6951 41.0154 21.6342C41.0154 21.5732 44.5576 21.5266 48.928 21.5266C53.2983 21.5266 56.8405 21.5732 56.8405 21.6342Z" fill="#FFF2EB"/>
<path d="M65.9042 13.7683H63.226V19.415H65.9042V13.7683Z" fill="#FFF2EB"/>
<path d="M72.8021 21.6342C72.8021 21.6951 69.2599 21.7417 64.8895 21.7417C60.5191 21.7417 56.9769 21.6951 56.9769 21.6342C56.9769 21.5732 60.5191 21.5266 64.8895 21.5266C69.2599 21.5266 72.8021 21.5732 72.8021 21.6342Z" fill="#FFF2EB"/>
<path d="M65.9042 24.9829H63.226V30.6296H65.9042V24.9829Z" fill="#FFF2EB"/>
<path d="M72.8021 32.849C72.8021 32.91 69.2599 32.9566 64.8895 32.9566C60.5191 32.9566 56.9769 32.91 56.9769 32.849C56.9769 32.7881 60.5191 32.7415 64.8895 32.7415C69.2599 32.7415 72.8021 32.7881 72.8021 32.849Z" fill="#FFF2EB"/>
<path d="M65.9042 36.5344H63.226V42.1811H65.9042V36.5344Z" fill="#FFF2EB"/>
<path d="M72.8021 44.4005C72.8021 44.4615 69.2599 44.5081 64.8895 44.5081C60.5191 44.5081 56.9769 44.4615 56.9769 44.4005C56.9769 44.3396 60.5191 44.293 64.8895 44.293C69.2599 44.293 72.8021 44.3396 72.8021 44.4005Z" fill="#FFF2EB"/>
<path d="M65.9042 48.0862H63.226V53.7329H65.9042V48.0862Z" fill="#FFF2EB"/>
<path d="M72.8021 55.952C72.8021 56.013 69.2599 56.0596 64.8895 56.0596C60.5191 56.0596 56.9769 56.013 56.9769 55.952C56.9769 55.8911 60.5191 55.8445 64.8895 55.8445C69.2599 55.8445 72.8021 55.8911 72.8021 55.952Z" fill="#FFF2EB"/>
<path d="M65.9042 59.3076H63.226V64.9543H65.9042V59.3076Z" fill="#FFF2EB"/>
<path d="M72.8021 67.1737C72.8021 67.2347 69.2599 67.2813 64.8895 67.2813C60.5191 67.2813 56.9769 67.2347 56.9769 67.1737C56.9769 67.1128 60.5191 67.0662 64.8895 67.0662C69.2599 67.0662 72.8021 67.1128 72.8021 67.1737Z" fill="#FFF2EB"/>
<path d="M65.9042 70.5762H63.226V76.2229H65.9042V70.5762Z" fill="#FFF2EB"/>
<path d="M65.9042 81.9915H63.226V87.6382H65.9042V81.9915Z" fill="#FFF2EB"/>
<path d="M72.8021 78.442C72.8021 78.503 69.2599 78.5496 64.8895 78.5496C60.5191 78.5496 56.9769 78.503 56.9769 78.442C56.9769 78.3811 60.5191 78.3345 64.8895 78.3345C69.2599 78.3345 72.8021 78.3811 72.8021 78.442Z" fill="#FFF2EB"/>
<path d="M49.9427 25.155H47.2645V30.8017H49.9427V25.155Z" fill="white"/>
<path d="M56.8405 33.0175C56.8405 33.0784 53.2983 33.125 48.928 33.125C44.5576 33.125 41.0154 33.0784 41.0154 33.0175C41.0154 32.9565 44.5576 32.9099 48.928 32.9099C53.2983 32.9099 56.8405 32.9565 56.8405 33.0175Z" fill="#FFF2EB"/>
<path d="M49.9427 36.5378H47.2645V42.1846H49.9427V36.5378Z" fill="white"/>
<path d="M56.8405 44.4039C56.8405 44.4649 53.2983 44.5115 48.928 44.5115C44.5576 44.5115 41.0154 44.4649 41.0154 44.4039C41.0154 44.343 44.5576 44.2964 48.928 44.2964C53.2983 44.2964 56.8405 44.343 56.8405 44.4039Z" fill="#FFF2EB"/>
<path d="M49.9427 47.9246H47.2645V53.5713H49.9427V47.9246Z" fill="white"/>
<path d="M56.8405 55.787C56.8405 55.8479 53.2983 55.8946 48.928 55.8946C44.5576 55.8946 41.0154 55.8479 41.0154 55.787C41.0154 55.7261 44.5576 55.6794 48.928 55.6794C53.2983 55.6794 56.8405 55.7261 56.8405 55.787Z" fill="#FFF2EB"/>
<path d="M49.9427 59.3079H47.2645V64.9546H49.9427V59.3079Z" fill="white"/>
<path d="M56.8405 67.1737C56.8405 67.2347 53.2983 67.2813 48.928 67.2813C44.5576 67.2813 41.0154 67.2347 41.0154 67.1737C41.0154 67.1128 44.5576 67.0662 48.928 67.0662C53.2983 67.0662 56.8405 67.1128 56.8405 67.1737Z" fill="#FFF2EB"/>
<path d="M49.9427 70.6943H47.2645V76.3411H49.9427V70.6943Z" fill="white"/>
<path d="M56.8405 78.5568C56.8405 78.6177 53.2983 78.6643 48.928 78.6643C44.5576 78.6643 41.0154 78.6177 41.0154 78.5568C41.0154 78.4958 44.5576 78.4492 48.928 78.4492C53.2983 78.4492 56.8405 78.4958 56.8405 78.5568Z" fill="#FFF2EB"/>
<path d="M49.9427 82.0774H47.2645V87.7241H49.9427V82.0774Z" fill="white"/>
<path d="M104.398 17.5471H75.5983V108.816H104.398V17.5471Z" fill="#FF9A6C"/>
<path d="M104.399 17.5471H90.0003V108.565H104.399V17.5471Z" fill="#FFCAAD"/>
<path d="M105.241 17.0237H74.5299V17.5471H105.241V17.0237Z" fill="#FFF2EB"/>
<path d="M83.7226 21.4551H81.2846V26.5963H83.7226V21.4551Z" fill="white"/>
<path d="M90.0003 28.611C90.0003 28.6647 86.7772 28.7078 82.8012 28.7078C78.8252 28.7078 75.6021 28.6647 75.6021 28.611C75.6021 28.5572 78.8252 28.5142 82.8012 28.5142C86.7772 28.5142 90.0003 28.5572 90.0003 28.611Z" fill="#FFF2EB"/>
<path d="M98.2463 21.4551H95.8083V26.5963H98.2463V21.4551Z" fill="#FFF2EB"/>
<path d="M104.524 28.611C104.524 28.6647 101.301 28.7078 97.3249 28.7078C93.3489 28.7078 90.1258 28.6647 90.1258 28.611C90.1258 28.5572 93.3489 28.5142 97.3249 28.5142C101.301 28.5142 104.524 28.5572 104.524 28.611Z" fill="#FFF2EB"/>
<path d="M98.2463 31.6584H95.8083V36.7997H98.2463V31.6584Z" fill="#FFF2EB"/>
<path d="M104.524 38.8146C104.524 38.8684 101.301 38.9114 97.3249 38.9114C93.3489 38.9114 90.1258 38.8684 90.1258 38.8146C90.1258 38.7608 93.3489 38.7178 97.3249 38.7178C101.301 38.7178 104.524 38.7608 104.524 38.8146Z" fill="#FFF2EB"/>
<path d="M98.2463 42.1704H95.8083V47.3116H98.2463V42.1704Z" fill="#FFF2EB"/>
<path d="M104.524 49.3302C104.524 49.384 101.301 49.427 97.3249 49.427C93.3489 49.427 90.1258 49.384 90.1258 49.3302C90.1258 49.2764 93.3489 49.2334 97.3249 49.2334C101.301 49.2334 104.524 49.2764 104.524 49.3302Z" fill="#FFF2EB"/>
<path d="M98.2463 52.6863H95.8083V57.8275H98.2463V52.6863Z" fill="#FFF2EB"/>
<path d="M104.524 59.8422C104.524 59.8959 101.301 59.939 97.3249 59.939C93.3489 59.939 90.1258 59.8959 90.1258 59.8422C90.1258 59.7884 93.3489 59.7454 97.3249 59.7454C101.301 59.7454 104.524 59.7884 104.524 59.8422Z" fill="#FFF2EB"/>
<path d="M98.2463 62.8965H95.8083V68.0377H98.2463V62.8965Z" fill="#FFF2EB"/>
<path d="M104.524 70.0563C104.524 70.1101 101.301 70.1531 97.3249 70.1531C93.3489 70.1531 90.1258 70.1101 90.1258 70.0563C90.1258 70.0025 93.3489 69.9595 97.3249 69.9595C101.301 69.9595 104.524 70.0025 104.524 70.0563Z" fill="#FFF2EB"/>
<path d="M98.2463 73.1501H95.8083V78.2913H98.2463V73.1501Z" fill="#FFF2EB"/>
<path d="M98.2463 83.5403H95.8083V88.6815H98.2463V83.5403Z" fill="#FFF2EB"/>
<path d="M104.524 80.3063C104.524 80.3601 101.301 80.4031 97.3249 80.4031C93.3489 80.4031 90.1258 80.3601 90.1258 80.3063C90.1258 80.2525 93.3489 80.2095 97.3249 80.2095C101.301 80.2095 104.524 80.2525 104.524 80.3063Z" fill="#FFF2EB"/>
<path d="M83.7226 31.8162H81.2846V36.9574H83.7226V31.8162Z" fill="white"/>
<path d="M90.0003 38.9725C90.0003 39.0263 86.7772 39.0693 82.8012 39.0693C78.8252 39.0693 75.6021 39.0263 75.6021 38.9725C75.6021 38.9188 78.8252 38.8757 82.8012 38.8757C86.7772 38.8757 90.0003 38.9188 90.0003 38.9725Z" fill="#FFF2EB"/>
<path d="M83.7226 42.1738H81.2846V47.315H83.7226V42.1738Z" fill="white"/>
<path d="M90.0003 49.3339C90.0003 49.3876 86.7772 49.4307 82.8012 49.4307C78.8252 49.4307 75.6021 49.3876 75.6021 49.3339C75.6021 49.2801 78.8252 49.2371 82.8012 49.2371C86.7772 49.2371 90.0003 49.2801 90.0003 49.3339Z" fill="#FFF2EB"/>
<path d="M83.7226 52.5354H81.2846V57.6766H83.7226V52.5354Z" fill="white"/>
<path d="M90.0003 59.6949C90.0003 59.7487 86.7772 59.7917 82.8012 59.7917C78.8252 59.7917 75.6021 59.7487 75.6021 59.6949C75.6021 59.6412 78.8252 59.5981 82.8012 59.5981C86.7772 59.5981 90.0003 59.6412 90.0003 59.6949Z" fill="#FFF2EB"/>
<path d="M83.7226 62.8965H81.2846V68.0377H83.7226V62.8965Z" fill="white"/>
<path d="M90.0003 70.0563C90.0003 70.1101 86.7772 70.1531 82.8012 70.1531C78.8252 70.1531 75.6021 70.1101 75.6021 70.0563C75.6021 70.0025 78.8252 69.9595 82.8012 69.9595C86.7772 69.9595 90.0003 70.0025 90.0003 70.0563Z" fill="#FFF2EB"/>
<path d="M83.7226 73.2581H81.2846V78.3993H83.7226V73.2581Z" fill="white"/>
<path d="M90.0003 80.4139C90.0003 80.4677 86.7772 80.5107 82.8012 80.5107C78.8252 80.5107 75.6021 80.4677 75.6021 80.4139C75.6021 80.3602 78.8252 80.3171 82.8012 80.3171C86.7772 80.3171 90.0003 80.3602 90.0003 80.4139Z" fill="#FFF2EB"/>
<path d="M83.7226 83.6191H81.2846V88.7603H83.7226V83.6191Z" fill="white"/>
<path d="M39.2656 50.0972H7.61893V150.39H39.2656V50.0972Z" fill="#FF9A6C"/>
<path d="M39.2622 50.0972H23.4407V150.114H39.2622V50.0972Z" fill="#FFCAAD"/>
<path d="M22.4046 40.2485H11.2294V50.0935H22.4046V40.2485Z" fill="#FF9A6C"/>
<path d="M22.4045 40.2485H19.7407V50.0935H22.4045V40.2485Z" fill="#FFCAAD"/>
<path d="M4.98032 50.0971V49.5234H40.1907V50.0971" fill="#FFF2EB"/>
<path d="M16.5427 54.3887H13.8645V60.0354H16.5427V54.3887Z" fill="white"/>
<path d="M23.4405 62.2545C23.4405 62.3155 19.8983 62.3621 15.5279 62.3621C11.1576 62.3621 7.61536 62.3155 7.61536 62.2545C7.61536 62.1936 11.1576 62.147 15.5279 62.147C19.8983 62.147 23.4405 62.1936 23.4405 62.2545Z" fill="#FFF2EB"/>
<path d="M32.5042 54.3887H29.826V60.0354H32.5042V54.3887Z" fill="#FFF2EB"/>
<path d="M39.4021 62.2545C39.4021 62.3155 35.8599 62.3621 31.4895 62.3621C27.1191 62.3621 23.5769 62.3155 23.5769 62.2545C23.5769 62.1936 27.1191 62.147 31.4895 62.147C35.8599 62.147 39.4021 62.1936 39.4021 62.2545Z" fill="#FFF2EB"/>
<path d="M32.5042 65.603H29.826V71.2497H32.5042V65.603Z" fill="#FFF2EB"/>
<path d="M39.4021 73.4691C39.4021 73.5301 35.8599 73.5767 31.4895 73.5767C27.1191 73.5767 23.5769 73.5301 23.5769 73.4691C23.5769 73.4082 27.1191 73.3616 31.4895 73.3616C35.8599 73.3616 39.4021 73.4082 39.4021 73.4691Z" fill="#FFF2EB"/>
<path d="M32.5042 77.155H29.826V82.8017H32.5042V77.155Z" fill="#FFF2EB"/>
<path d="M39.4021 85.0211C39.4021 85.0821 35.8599 85.1287 31.4895 85.1287C27.1191 85.1287 23.5769 85.0821 23.5769 85.0211C23.5769 84.9602 27.1191 84.9136 31.4895 84.9136C35.8599 84.9136 39.4021 84.9602 39.4021 85.0211Z" fill="#FFF2EB"/>
<path d="M32.5042 88.71H29.826V94.3567H32.5042V88.71Z" fill="#FFF2EB"/>
<path d="M39.4021 96.5724C39.4021 96.6333 35.8599 96.68 31.4895 96.68C27.1191 96.68 23.5769 96.6333 23.5769 96.5724C23.5769 96.5114 27.1191 96.4648 31.4895 96.4648C35.8599 96.4648 39.4021 96.5114 39.4021 96.5724Z" fill="#FFF2EB"/>
<path d="M32.5042 99.9314H29.826V105.578H32.5042V99.9314Z" fill="#FFF2EB"/>
<path d="M39.4021 107.794C39.4021 107.855 35.8599 107.901 31.4895 107.901C27.1191 107.901 23.5769 107.855 23.5769 107.794C23.5769 107.733 27.1191 107.686 31.4895 107.686C35.8599 107.686 39.4021 107.733 39.4021 107.794Z" fill="#FFF2EB"/>
<path d="M32.5042 111.197H29.826V116.843H32.5042V111.197Z" fill="#FFF2EB"/>
<path d="M32.5042 122.612H29.826V128.259H32.5042V122.612Z" fill="#FFF2EB"/>
<path d="M39.4021 119.063C39.4021 119.124 35.8599 119.17 31.4895 119.17C27.1191 119.17 23.5769 119.124 23.5769 119.063C23.5769 119.002 27.1191 118.955 31.4895 118.955C35.8599 118.955 39.4021 119.002 39.4021 119.063Z" fill="#FFF2EB"/>
<path d="M16.5427 65.7754H13.8645V71.4221H16.5427V65.7754Z" fill="white"/>
<path d="M23.4405 73.6412C23.4405 73.7022 19.8983 73.7488 15.5279 73.7488C11.1576 73.7488 7.61536 73.7022 7.61536 73.6412C7.61536 73.5803 11.1576 73.5337 15.5279 73.5337C19.8983 73.5337 23.4405 73.5803 23.4405 73.6412Z" fill="#FFF2EB"/>
<path d="M16.5427 77.1619H13.8645V82.8086H16.5427V77.1619Z" fill="white"/>
<path d="M23.4405 85.0243C23.4405 85.0853 19.8983 85.1319 15.5279 85.1319C11.1576 85.1319 7.61536 85.0853 7.61536 85.0243C7.61536 84.9634 11.1576 84.9167 15.5279 84.9167C19.8983 84.9167 23.4405 84.9634 23.4405 85.0243Z" fill="#FFF2EB"/>
<path d="M16.5427 88.5452H13.8645V94.1919H16.5427V88.5452Z" fill="white"/>
<path d="M23.4405 96.411C23.4405 96.472 19.8983 96.5186 15.5279 96.5186C11.1576 96.5186 7.61536 96.472 7.61536 96.411C7.61536 96.3501 11.1576 96.3035 15.5279 96.3035C19.8983 96.3035 23.4405 96.3537 23.4405 96.411Z" fill="#FFF2EB"/>
<path d="M16.5427 99.9316H13.8645V105.578H16.5427V99.9316Z" fill="white"/>
<path d="M23.4405 107.794C23.4405 107.855 19.8983 107.902 15.5279 107.902C11.1576 107.902 7.61536 107.855 7.61536 107.794C7.61536 107.733 11.1576 107.687 15.5279 107.687C19.8983 107.687 23.4405 107.733 23.4405 107.794Z" fill="#FFF2EB"/>
<path d="M16.5427 111.315H13.8645V116.962H16.5427V111.315Z" fill="white"/>
<path d="M23.4405 119.181C23.4405 119.241 19.8983 119.288 15.5279 119.288C11.1576 119.288 7.61536 119.241 7.61536 119.181C7.61536 119.12 11.1576 119.073 15.5279 119.073C19.8983 119.073 23.4405 119.12 23.4405 119.181Z" fill="#FFF2EB"/>
<path d="M16.5427 122.701H13.8645V128.348H16.5427V122.701Z" fill="white"/>
<path d="M74.225 150.343H33.0345L32.8552 85.2466H74.0458L74.225 150.343Z" fill="#FF9A6C"/>
<path d="M74.0422 85.2466H53.4487V150.343H74.0422V85.2466Z" fill="#FFCAAD"/>
<path d="M52.1042 72.4294H37.5589V85.2466H52.1042V72.4294Z" fill="#FF9A6C"/>
<path d="M52.1044 72.4294H48.6375V85.2466H52.1044V72.4294Z" fill="#FFCAAD"/>
<path d="M75.2468 84.4973H29.4206V85.243H75.2468V84.4973Z" fill="#FFF2EB"/>
<path d="M44.4713 90.8359H40.9864V98.1892H44.4713V90.8359Z" fill="white"/>
<path d="M53.4487 101.072C53.4487 101.151 48.8381 101.212 43.1519 101.212C37.4658 101.212 32.8552 101.151 32.8552 101.072C32.8552 100.993 37.4658 100.932 43.1519 100.932C48.8381 100.932 53.4487 100.996 53.4487 101.072Z" fill="#FFF2EB"/>
<path d="M65.2442 90.835H61.7593V98.1882H65.2442V90.835Z" fill="#FF9A6C"/>
<path d="M74.2252 101.072C74.2252 101.151 69.6146 101.212 63.9284 101.212C58.2423 101.212 53.6317 101.151 53.6317 101.072C53.6317 100.993 58.2423 100.932 63.9284 100.932C69.6146 100.932 74.2252 100.996 74.2252 101.072Z" fill="#FFF2EB"/>
<path d="M65.2439 105.431H61.7591V112.784H65.2439V105.431Z" fill="#FF9A6C"/>
<path d="M74.2249 115.667C74.2249 115.746 69.6143 115.807 63.9282 115.807C58.242 115.807 53.6314 115.742 53.6314 115.667C53.6314 115.592 58.242 115.527 63.9282 115.527C69.6143 115.527 74.2249 115.592 74.2249 115.667Z" fill="#FFF2EB"/>
<path d="M65.2439 120.468H61.7591V127.821H65.2439V120.468Z" fill="#FF9A6C"/>
<path d="M74.2249 130.704C74.2249 130.782 69.6143 130.843 63.9282 130.843C58.242 130.843 53.6314 130.779 53.6314 130.704C53.6314 130.628 58.242 130.564 63.9282 130.564C69.6143 130.564 74.2249 130.628 74.2249 130.704Z" fill="#FFF2EB"/>
<path d="M65.2439 135.504H61.7591V142.858H65.2439V135.504Z" fill="#FF9A6C"/>
<path d="M74.2249 145.74C74.2249 145.819 69.6143 145.88 63.9282 145.88C58.242 145.88 53.6314 145.815 53.6314 145.74C53.6314 145.665 58.242 145.6 63.9282 145.6C69.6143 145.6 74.2249 145.665 74.2249 145.74Z" fill="#FFF2EB"/>
<path d="M44.4713 105.654H40.9864V113.007H44.4713V105.654Z" fill="white"/>
<path d="M53.4487 115.89C53.4487 115.968 48.8381 116.029 43.1519 116.029C37.4658 116.029 32.8552 115.965 32.8552 115.89C32.8552 115.814 37.4658 115.75 43.1519 115.75C48.8381 115.75 53.4487 115.814 53.4487 115.89Z" fill="#FFF2EB"/>
<path d="M44.4713 120.471H40.9864V127.825H44.4713V120.471Z" fill="white"/>
<path d="M53.4487 130.711C53.4487 130.79 48.8381 130.851 43.1519 130.851C37.4658 130.851 32.8552 130.786 32.8552 130.711C32.8552 130.636 37.4658 130.571 43.1519 130.571C48.8381 130.571 53.4487 130.636 53.4487 130.711Z" fill="#FFF2EB"/>
<path d="M44.4713 135.293H40.9864V142.646H44.4713V135.293Z" fill="white"/>
<path d="M53.4487 145.529C53.4487 145.607 48.8381 145.668 43.1519 145.668C37.4658 145.668 32.8552 145.604 32.8552 145.529C32.8552 145.453 37.4658 145.389 43.1519 145.389C48.8381 145.389 53.4487 145.453 53.4487 145.529Z" fill="#FFF2EB"/>
<path d="M104.786 150.322H73.612L73.4758 101.05H104.653L104.786 150.322Z" fill="#FF9A6C"/>
<path d="M104.653 101.05H89.0646V150.322H104.653V101.05Z" fill="#FFCAAD"/>
<path d="M88.0463 91.3523H77.0361V101.05H88.0463V91.3523Z" fill="#FF9A6C"/>
<path d="M88.0463 91.3523H85.422V101.05H88.0463V91.3523Z" fill="#FFCAAD"/>
<path d="M105.564 100.484H70.8767V101.051H105.564V100.484Z" fill="#FFF2EB"/>
<path d="M82.2668 105.281H79.6281V110.845H82.2668V105.281Z" fill="white"/>
<path d="M89.0643 113.029C89.0643 113.086 85.5759 113.136 81.2701 113.136C76.9642 113.136 73.4758 113.09 73.4758 113.029C73.4758 112.968 76.9642 112.921 81.2701 112.921C85.5759 112.921 89.0643 112.968 89.0643 113.029Z" fill="#FFF2EB"/>
<path d="M97.9917 105.281H95.353V110.845H97.9917V105.281Z" fill="#FF9A6C"/>
<path d="M104.786 113.028C104.786 113.086 101.297 113.136 96.9914 113.136C92.6856 113.136 89.1971 113.089 89.1971 113.028C89.1971 112.968 92.6856 112.921 96.9914 112.921C101.297 112.921 104.786 112.968 104.786 113.028Z" fill="#FFF2EB"/>
<path d="M97.9917 116.327H95.353V121.891H97.9917V116.327Z" fill="#FF9A6C"/>
<path d="M104.786 124.075C104.786 124.132 101.297 124.182 96.9914 124.182C92.6856 124.182 89.1971 124.136 89.1971 124.075C89.1971 124.014 92.6856 123.967 96.9914 123.967C101.297 123.967 104.786 124.014 104.786 124.075Z" fill="#FFF2EB"/>
<path d="M97.9917 127.71H95.353V133.274H97.9917V127.71Z" fill="#FF9A6C"/>
<path d="M104.786 135.458C104.786 135.515 101.297 135.565 96.9914 135.565C92.6856 135.565 89.1971 135.519 89.1971 135.458C89.1971 135.397 92.6856 135.35 96.9914 135.35C101.297 135.35 104.786 135.397 104.786 135.458Z" fill="#FFF2EB"/>
<path d="M97.9917 139.089H95.353V144.654H97.9917V139.089Z" fill="#FF9A6C"/>
<path d="M104.786 146.837C104.786 146.894 101.297 146.945 96.9914 146.945C92.6856 146.945 89.1971 146.898 89.1971 146.837C89.1971 146.776 92.6856 146.729 96.9914 146.729C101.297 146.729 104.786 146.776 104.786 146.837Z" fill="#FFF2EB"/>
<path d="M82.2668 116.495H79.6281V122.06H82.2668V116.495Z" fill="white"/>
<path d="M89.0643 124.247C89.0643 124.304 85.5759 124.354 81.2701 124.354C76.9642 124.354 73.4758 124.308 73.4758 124.247C73.4758 124.186 76.9642 124.139 81.2701 124.139C85.5759 124.139 89.0643 124.186 89.0643 124.247Z" fill="#FFF2EB"/>
<path d="M82.2668 127.714H79.6281V133.278H82.2668V127.714Z" fill="white"/>
<path d="M89.0643 135.461C89.0643 135.519 85.5759 135.569 81.2701 135.569C76.9642 135.569 73.4758 135.522 73.4758 135.461C73.4758 135.4 76.9642 135.354 81.2701 135.354C85.5759 135.354 89.0643 135.4 89.0643 135.461Z" fill="#FFF2EB"/>
<path d="M82.2668 138.928H79.6281V144.493H82.2668V138.928Z" fill="white"/>
<path d="M89.0643 146.676C89.0643 146.733 85.5759 146.783 81.2701 146.783C76.9642 146.783 73.4758 146.737 73.4758 146.676C73.4758 146.615 76.9642 146.568 81.2701 146.568C85.5759 146.568 89.0643 146.615 89.0643 146.676Z" fill="#FFF2EB"/>
<path d="M162.185 30.4254C162.519 28.021 159.086 26.0463 156.502 25.838C155.271 25.7382 153.992 25.9248 152.827 25.5255C150.299 24.6575 149.288 21.4329 146.822 20.4043C144.98 19.6361 142.857 20.3218 141.068 21.2072C139.279 22.0969 137.516 23.2123 135.516 23.3381C133.78 23.4466 131.894 22.813 130.373 23.6506C129.239 24.2756 128.645 25.5646 127.603 26.3241C126.584 27.0662 125.252 27.2268 123.986 27.2919C122.72 27.3613 121.405 27.3744 120.254 27.8952C119.102 28.416 118.144 29.6225 118.385 30.8507L162.185 30.4254Z" fill="#FF9A6C"/>
<path d="M186.252 10.4955C186.432 9.17973 184.578 8.10058 183.183 7.98585C182.52 7.93208 181.828 8.03246 181.197 7.81376C179.831 7.33693 179.286 5.57659 177.956 5.01371C176.959 4.59424 175.816 4.9671 174.848 5.45469C173.883 5.93869 172.93 6.55177 171.851 6.61989C170.911 6.68083 169.893 6.33307 169.072 6.79198C168.459 7.13257 168.14 7.83886 167.577 8.25475C167.025 8.65988 166.308 8.74592 165.623 8.78536C164.938 8.82121 164.232 8.82838 163.608 9.1152C162.984 9.40202 162.468 10.0581 162.601 10.7321L186.252 10.4991V10.4955Z" fill="#FF9A6C"/>
<path d="M32.1275 22.0609C32.3068 20.7452 30.4532 19.666 29.0586 19.5513C28.3953 19.4975 27.7034 19.5979 27.0724 19.3792C25.7064 18.9024 25.1615 17.142 23.8313 16.5791C22.8347 16.1597 21.691 16.5325 20.723 17.0201C19.7585 17.5041 18.8049 18.1172 17.7257 18.1853C16.7864 18.2463 15.7682 17.8985 14.9472 18.3574C14.3341 18.698 14.015 19.4043 13.4521 19.8202C12.9 20.2253 12.183 20.3114 11.4982 20.3508C10.8134 20.3866 10.1071 20.3938 9.4833 20.6806C8.85947 20.9674 8.3432 21.6235 8.47585 22.2976L32.1275 22.0645V22.0609Z" fill="#FF9A6C"/>
<path d="M163.544 38.763C163.544 38.763 162.574 37.7171 162.102 37.9663C161.63 38.2155 161.292 38.8941 161.105 39.2843C160.898 39.717 161.348 40.0547 161.535 39.9891C161.721 39.9203 162.174 39.4023 162.174 39.4023L163.066 40.1268L163.095 41.3464L163.043 41.7038L162.262 41.5005L162.102 40.5793C162.043 40.2449 161.63 40.0809 161.387 40.317C161.292 40.4088 161.223 40.553 161.207 40.7727C161.154 41.5661 161.223 42.9464 162.121 43.3726C163.02 43.7988 164.629 44.2709 164.629 44.2709L165.367 45.0315L168.429 44.4053L167.836 43.0808L167.551 38.9957C167.551 38.9957 168.492 37.3008 168.426 36.7336C168.36 36.1664 167.97 34.4812 167.97 34.4812C167.97 34.4812 167.495 34.2976 167.396 34.8189C167.298 35.3435 167.449 36.7434 167.449 36.7434L166.646 38.104L165.833 33.619C165.77 33.2747 165.305 33.1862 165.134 33.4911C165.056 33.6288 165.006 33.8354 165.013 34.1403C165.039 35.2812 165.472 37.9958 165.338 38.0319C165.203 38.0679 164.839 37.8876 164.685 37.3335C164.544 36.8286 163.754 34.6452 163.433 33.7698C163.354 33.5534 163.059 33.5042 162.925 33.6911C162.751 33.9304 162.616 34.3534 162.8 35.091C163.023 35.9926 163.502 37.7925 163.544 38.0089C163.587 38.222 163.544 38.7564 163.544 38.7564V38.763Z" fill="#FFBF9D"/>
<path d="M165.587 42.5366C165.564 42.5498 165.478 42.4252 165.308 42.2645C165.141 42.1006 164.875 41.9072 164.541 41.7826C164.206 41.658 163.878 41.6285 163.642 41.6416C163.406 41.6547 163.262 41.6908 163.252 41.6646C163.246 41.6482 163.383 41.5695 163.629 41.5269C163.875 41.4842 164.233 41.4941 164.596 41.6285C164.957 41.7629 165.236 41.9924 165.393 42.1858C165.551 42.3793 165.603 42.5301 165.587 42.5366Z" fill="#FF9A6C"/>
<path d="M157.581 136.754L162.607 144.531L164.81 151.829C164.967 152.354 165.541 152.636 166.052 152.442C166.341 152.334 166.57 152.098 166.633 151.796C167.029 149.947 168.403 141.446 168.141 141.049C167.708 140.394 163.754 133.817 163.754 133.817L157.577 136.751L157.581 136.754Z" fill="#171717"/>
<path d="M166.052 152.442L167.816 140.518L168.023 140.852C168.2 141.141 168.272 141.482 168.219 141.82C168.082 142.715 167.642 147.01 166.662 151.783C166.6 152.095 166.354 152.337 166.056 152.442H166.052Z" fill="#455A64"/>
<g opacity="0.6">
<path d="M165.006 140.292C164.892 140.551 165.013 140.889 165.265 141.013C165.518 141.138 165.865 141.02 165.983 140.764C166.101 140.508 165.97 140.099 165.705 140.004C165.439 139.908 165.042 140.069 164.987 140.348" fill="white"/>
</g>
<path d="M165.737 147.885C165.705 147.934 165.275 147.629 164.669 147.695C164.062 147.744 163.695 148.121 163.652 148.079C163.633 148.062 163.695 147.941 163.865 147.8C164.033 147.659 164.315 147.521 164.649 147.492C164.983 147.462 165.288 147.544 165.478 147.649C165.669 147.754 165.754 147.862 165.737 147.882V147.885Z" fill="white"/>
<path d="M165.954 145.888C165.941 145.947 165.308 145.79 164.544 145.934C163.777 146.065 163.239 146.433 163.206 146.38C163.167 146.347 163.685 145.875 164.508 145.734C165.328 145.583 165.977 145.846 165.954 145.888Z" fill="white"/>
<path d="M164.623 143.397C164.629 143.456 164.082 143.541 163.505 143.872C162.921 144.193 162.561 144.613 162.511 144.574C162.465 144.548 162.777 144.039 163.406 143.695C164.029 143.344 164.626 143.348 164.626 143.4L164.623 143.397Z" fill="white"/>
<path d="M163.692 141.741C163.695 141.8 163.095 141.807 162.515 142.204C161.924 142.587 161.685 143.135 161.629 143.108C161.606 143.099 161.629 142.948 161.747 142.731C161.862 142.515 162.085 142.243 162.4 142.033C162.715 141.823 163.052 141.725 163.298 141.702C163.544 141.679 163.695 141.715 163.692 141.738V141.741Z" fill="white"/>
<path d="M137.972 87.4555C137.972 87.7669 140.276 116.487 141.162 118.362C142.044 120.237 159.466 141.699 159.466 141.699L166.734 136.689L151.296 114.313L150.863 93.3535L147.283 85.1343L137.968 87.4555H137.972Z" fill="#171717"/>
<path d="M159.767 81.7083C159.951 82.1443 162.348 88.9898 162.528 91.8946C162.711 94.8026 157.341 146.39 157.341 146.39L148.473 145.682L150.778 95.6518L146.952 85.1343L159.767 81.7083Z" fill="#171717"/>
<path d="M149.81 92.8289C149.81 92.8289 149.81 92.8616 149.81 92.9305C149.814 93.0026 149.82 93.101 149.824 93.2256C149.84 93.4911 149.863 93.878 149.892 94.3763C149.958 95.3894 150.053 96.8647 150.174 98.74C150.427 102.507 150.787 107.874 151.22 114.32V114.339L151.233 114.356C154.836 119.585 159.095 125.768 163.646 132.368C164.669 133.85 165.675 135.309 166.662 136.738L166.685 136.617C164.154 138.361 161.718 140.043 159.416 141.63L159.528 141.646C154.181 134.994 149.597 129.293 146.348 125.247C144.722 123.234 143.43 121.634 142.539 120.532C142.096 119.988 141.755 119.568 141.519 119.28C141.404 119.142 141.316 119.037 141.253 118.959C141.194 118.887 141.158 118.854 141.158 118.854C141.158 118.854 141.185 118.893 141.24 118.968C141.303 119.047 141.385 119.155 141.496 119.296C141.726 119.588 142.063 120.014 142.496 120.565C143.378 121.673 144.657 123.286 146.266 125.309C149.505 129.365 154.072 135.082 159.397 141.748L159.446 141.81L159.512 141.764C161.813 140.18 164.252 138.502 166.783 136.758L166.855 136.709L166.806 136.636C165.819 135.207 164.813 133.745 163.79 132.263C159.236 125.666 154.967 119.49 151.358 114.264L151.371 114.303C150.912 107.861 150.528 102.494 150.26 98.7302C150.122 96.8549 150.01 95.3795 149.935 94.3698C149.896 93.8714 149.866 93.4878 149.843 93.2223C149.833 93.0977 149.823 92.9993 149.817 92.9272C149.81 92.8616 149.807 92.8289 149.804 92.8289H149.81Z" fill="#455A64"/>
<path d="M150.345 141.374L150.529 148.101C150.529 148.101 143.752 150.547 143.663 151.793L156.722 151.904L156.866 141.41L150.345 141.371V141.374Z" fill="#171717"/>
<path d="M154.571 147.57C154.823 147.642 154.994 147.928 154.935 148.183C154.873 148.439 154.584 148.616 154.332 148.547C154.079 148.482 153.859 148.144 153.951 147.898C154.04 147.652 154.391 147.462 154.62 147.587" fill="#FFF2EB"/>
<path d="M150.319 148.032C150.319 148.095 150.64 148.127 150.951 148.334C151.269 148.534 151.427 148.813 151.486 148.786C151.545 148.773 151.453 148.393 151.069 148.147C150.689 147.898 150.302 147.97 150.315 148.029L150.319 148.032Z" fill="white"/>
<path d="M148.942 148.587C148.925 148.649 149.201 148.76 149.417 149.029C149.64 149.295 149.692 149.587 149.755 149.583C149.814 149.593 149.863 149.219 149.588 148.888C149.319 148.554 148.942 148.524 148.942 148.583V148.587Z" fill="white"/>
<path d="M150.446 146.495C150.473 146.554 150.764 146.469 151.125 146.495C151.486 146.515 151.764 146.639 151.8 146.583C151.837 146.538 151.564 146.298 151.141 146.272C150.719 146.242 150.417 146.442 150.446 146.492V146.495Z" fill="white"/>
<path d="M145.647 35.4154C146.358 35.3269 146.945 34.645 146.929 33.927C146.912 33.209 146.293 32.5566 145.578 32.5008C145.902 31.9533 145.834 31.2058 145.417 30.7239C145.001 30.2452 144.267 30.0714 143.68 30.3173C143.506 29.7141 143.001 29.219 142.394 29.0584C141.788 28.8977 141.103 29.0748 140.654 29.5141C139.841 29.101 138.752 29.3403 138.188 30.0583C137.569 30.0911 137.001 30.5632 136.854 31.1632C136.706 31.7632 136.988 32.4451 137.519 32.7631" fill="#171717"/>
<path d="M148.201 43.1692C147.843 41.5988 146.843 38.4252 145.903 35.5631C144.893 32.4878 141.69 30.701 138.542 31.4616L138.231 31.537C134.906 32.5468 133.906 35.9368 135.008 39.2317L138.391 50.9426L146.398 50.0574L145.821 47.71C145.821 47.71 148.942 46.4248 148.201 43.1725V43.1692Z" fill="#FFBF9D"/>
<path d="M145.847 47.6967C145.847 47.6967 143.808 48.3196 141.299 47.4771C141.299 47.4771 142.86 49.5687 146.027 48.4967L145.85 47.6967H145.847Z" fill="#FF9A6C"/>
<path d="M145.198 38.7235C145.267 38.9661 145.116 39.2218 144.863 39.2972C144.611 39.3726 144.352 39.2382 144.286 38.9956C144.217 38.753 144.368 38.4972 144.621 38.4218C144.873 38.3464 145.132 38.4808 145.198 38.7235Z" fill="#171717"/>
<path d="M145.588 37.3171C145.545 37.3925 145.132 37.2155 144.634 37.3368C144.135 37.4515 143.831 37.7958 143.762 37.7466C143.729 37.7269 143.762 37.6023 143.893 37.4482C144.021 37.2942 144.263 37.1171 144.571 37.045C144.883 36.9729 145.171 37.022 145.348 37.104C145.529 37.186 145.608 37.281 145.588 37.3138V37.3171Z" fill="#171717"/>
<path d="M140.798 39.8319C140.867 40.0745 140.716 40.3302 140.463 40.4056C140.211 40.481 139.952 40.3466 139.886 40.104C139.818 39.8614 139.968 39.6056 140.221 39.5302C140.473 39.4548 140.732 39.5892 140.798 39.8319Z" fill="#171717"/>
<path d="M140.772 38.5991C140.736 38.6778 140.309 38.5336 139.821 38.6942C139.332 38.845 139.057 39.2122 138.985 39.1696C138.949 39.1532 138.972 39.0254 139.093 38.8614C139.211 38.6975 139.434 38.5041 139.739 38.4057C140.044 38.3074 140.336 38.3369 140.519 38.4057C140.706 38.4713 140.791 38.5631 140.772 38.5991Z" fill="#171717"/>
<path d="M143.411 41.8511C143.401 41.8249 143.699 41.6938 144.185 41.5102C144.309 41.4676 144.424 41.4118 144.424 41.32C144.43 41.2217 144.345 41.0971 144.247 40.9627C144.053 40.684 143.85 40.3922 143.637 40.084C142.781 38.8316 142.132 37.7891 142.181 37.753C142.231 37.7202 142.965 38.707 143.821 39.9594C144.027 40.2676 144.227 40.566 144.417 40.8479C144.499 40.9823 144.624 41.1266 144.604 41.3299C144.594 41.4348 144.516 41.5233 144.44 41.5659C144.365 41.6118 144.293 41.6282 144.23 41.6479C143.732 41.7954 143.421 41.8741 143.411 41.8479V41.8511Z" fill="#171717"/>
<path d="M140.188 36.9598C140.195 37.1074 139.742 37.2057 139.26 37.4647C138.775 37.7106 138.431 38.0286 138.319 37.9368C138.267 37.8909 138.293 37.7434 138.411 37.5533C138.526 37.3664 138.742 37.1467 139.031 36.9959C139.319 36.8451 139.618 36.7926 139.834 36.809C140.05 36.8221 140.182 36.891 140.188 36.9598Z" fill="#171717"/>
<path d="M145.214 35.9432C145.135 36.0744 144.735 36.0219 144.276 36.0973C143.814 36.1563 143.444 36.3236 143.335 36.2186C143.286 36.1662 143.325 36.0416 143.476 35.9039C143.624 35.7662 143.889 35.6285 144.204 35.5826C144.519 35.5367 144.811 35.5924 144.991 35.681C145.175 35.7695 145.247 35.881 145.214 35.9432Z" fill="#171717"/>
<path d="M145.231 34.1534C145.231 34.1534 143.886 32.3305 142.791 32.0912C141.467 31.8027 141.27 33.2255 140.067 33.1829C138.86 33.1403 137.598 32.8616 136.654 34.0124C135.621 35.2713 136.375 35.7992 136.644 37.2581C137.733 43.166 137.067 45.0741 136.1 42.3988C135.995 42.107 135.1 42.0677 134.67 40.8251C134.113 39.2154 133.566 37.2286 133.654 35.9697C133.726 34.9074 134.126 34.0911 134.952 33.0977C136.257 31.5273 138.437 30.9765 139.959 30.7666C141.48 30.5568 144.755 31.5764 145.231 34.1501V34.1534Z" fill="#171717"/>
<path d="M136.287 42.2612C136.146 41.7662 135.618 41.4744 135.133 41.6416C134.542 41.8449 133.952 42.3498 134.293 43.589C134.9 45.7889 136.982 44.7267 136.969 44.6644C136.959 44.6218 136.549 43.1792 136.287 42.2612Z" fill="#FFBF9D"/>
<path d="M136.26 43.9692C136.26 43.9692 136.231 44.0053 136.172 44.0545C136.116 44.1004 136.014 44.1496 135.887 44.1397C135.631 44.1168 135.333 43.802 135.214 43.4086C135.155 43.2086 135.142 43.0086 135.172 42.8316C135.195 42.6513 135.267 42.5103 135.378 42.4579C135.487 42.3988 135.588 42.4447 135.634 42.5005C135.68 42.5529 135.68 42.6021 135.69 42.6021C135.696 42.6054 135.726 42.5529 135.683 42.4677C135.664 42.4251 135.621 42.3824 135.559 42.3529C135.493 42.3234 135.411 42.3234 135.333 42.3529C135.165 42.412 135.057 42.6087 135.028 42.8054C134.988 43.0021 134.995 43.2316 135.064 43.4545C135.198 43.8938 135.539 44.2446 135.883 44.2512C136.051 44.2512 136.165 44.166 136.218 44.0971C136.27 44.025 136.27 43.9725 136.26 43.9692Z" fill="#FF9A6C"/>
<path d="M135.293 37.9565C135.628 38.0843 135.982 38.2122 136.336 38.163C136.69 38.1138 137.041 37.8188 137.014 37.4614C137.005 37.3008 136.923 37.1303 136.995 36.986C137.08 36.8155 137.316 36.8057 137.506 36.7795C138.168 36.691 138.716 36.0779 138.729 35.4123C138.952 35.6189 139.332 35.5173 139.542 35.2943C139.752 35.0747 139.85 34.773 139.991 34.5042C140.132 34.2354 140.358 33.9698 140.66 33.9403C140.831 33.9239 141.008 33.9862 141.168 33.9305C141.453 33.8354 141.512 33.4583 141.486 33.16C141.46 32.8617 141.414 32.5141 141.624 32.2978C141.817 32.0978 142.132 32.1109 142.411 32.0847C142.689 32.0584 143.021 31.9142 143.024 31.6355C143.024 31.488 142.932 31.3601 142.827 31.2585C142.352 30.7995 141.539 30.7372 141.001 31.124C140.608 30.4454 139.785 30.0389 139.008 30.1405C138.227 30.2421 137.539 30.8486 137.336 31.606C136.765 31.2945 136.041 31.2781 135.457 31.5699C134.873 31.8584 134.447 32.4453 134.352 33.0879C133.778 33.0748 133.215 33.4321 132.978 33.9567C132.742 34.4812 132.851 35.1369 133.241 35.5599C132.897 35.8845 132.651 36.3631 132.752 36.8221C132.854 37.2844 133.411 37.6319 133.824 37.4057C133.733 37.8057 133.995 38.2548 134.388 38.3728C134.782 38.4876 135.247 38.2548 135.385 37.868" fill="#171717"/>
<path d="M141.329 31.7371C141.329 31.7371 141.336 31.7502 141.339 31.7764C141.342 31.8026 141.352 31.8453 141.352 31.8977C141.355 32.0059 141.352 32.1665 141.293 32.3633C141.234 32.5567 141.126 32.7927 140.929 33.0058C140.736 33.2189 140.447 33.4157 140.083 33.4845L140.109 33.4255C140.224 33.5993 140.26 33.832 140.211 34.0484C140.168 34.2681 140.07 34.4779 139.962 34.6844C139.906 34.7861 139.864 34.8976 139.775 34.9992C139.69 35.0975 139.578 35.1664 139.454 35.2156C139.211 35.3074 138.91 35.2975 138.68 35.1303L138.759 35.0877C138.808 35.5434 138.664 36.0418 138.329 36.4089C138.155 36.6122 137.916 36.7663 137.66 36.822C137.405 36.8811 137.146 36.8647 136.906 36.8384L136.959 36.7991C136.906 37.104 136.778 37.3827 136.598 37.6089C136.421 37.8351 136.156 38.0056 135.877 38.0056C135.326 38.022 134.874 37.6712 134.706 37.2778L134.762 37.2876C134.536 37.4909 134.261 37.5728 134.028 37.5827C133.792 37.5958 133.588 37.54 133.441 37.4745C133.29 37.4056 133.192 37.3237 133.129 37.2646C133.07 37.2023 133.044 37.1663 133.044 37.163C133.054 37.1499 133.159 37.3138 133.457 37.4384C133.605 37.4974 133.802 37.5466 134.028 37.5269C134.251 37.5105 134.51 37.4286 134.72 37.2351L134.756 37.2023L134.775 37.2482C134.939 37.6122 135.369 37.94 135.877 37.9203C136.129 37.9203 136.362 37.7663 136.529 37.5532C136.697 37.34 136.818 37.0712 136.867 36.786L136.874 36.7401H136.919C137.156 36.7696 137.405 36.786 137.641 36.7302C137.88 36.6778 138.093 36.5401 138.26 36.3467C138.575 36.0024 138.71 35.5336 138.667 35.1008L138.657 34.9926L138.746 35.0582C138.942 35.2025 139.211 35.2156 139.431 35.1303C139.539 35.091 139.641 35.0254 139.716 34.9434C139.788 34.8615 139.834 34.75 139.893 34.6484C140.001 34.4451 140.096 34.2418 140.139 34.0386C140.185 33.8353 140.155 33.632 140.054 33.4747L140.024 33.4255L140.08 33.4157C140.424 33.3566 140.703 33.1731 140.893 32.9731C141.09 32.7698 141.198 32.5469 141.263 32.36C141.385 31.9764 141.323 31.7436 141.339 31.7436L141.329 31.7371Z" fill="#455A64"/>
<path d="M142.109 42.8708C142.742 42.8348 143.378 42.8774 144.001 42.9954L144.011 43.0085C144.044 43.438 144.031 43.9232 143.729 44.2314C143.503 44.4609 143.145 44.5363 142.837 44.4445C142.529 44.3527 142.296 44.1495 142.172 43.8544C142.047 43.5593 142.08 43.1823 142.106 42.8708H142.109Z" fill="#FF9A6C"/>
<path d="M143.381 44.3921C143.375 44.3626 143.139 44.5134 142.781 44.3724C142.608 44.3035 142.424 44.1658 142.309 43.9495C142.191 43.7331 142.142 43.4577 142.158 43.1659C142.162 43.1003 142.168 43.0052 142.181 42.9659C142.194 42.9495 142.168 42.9659 142.191 42.9593H142.29C142.431 42.9692 142.565 42.9757 142.699 42.9823C142.942 42.9921 143.175 42.9987 143.394 43.0052C143.791 43.0151 144.037 43.0085 144.037 42.9856C144.037 42.9626 143.794 42.9266 143.401 42.8905C143.181 42.8708 142.952 42.8512 142.709 42.8315C142.575 42.8216 142.44 42.8118 142.299 42.802C142.26 42.802 142.234 42.7954 142.185 42.7954C142.132 42.7856 142.037 42.8512 142.031 42.9102C142.004 43.0118 142.008 43.0708 141.998 43.1561C141.981 43.4675 142.037 43.779 142.181 44.0216C142.319 44.2675 142.545 44.4216 142.745 44.4806C142.945 44.5461 143.126 44.5232 143.234 44.4871C143.345 44.4478 143.391 44.4019 143.385 44.3953L143.381 44.3921Z" fill="#171717"/>
<path d="M130.398 54.6372L117.986 58.2894L113.901 52.9323C113.927 53.5618 108.849 52.7651 108.849 52.7651C112.468 61.4565 114.445 64.3612 114.983 64.6104C116.347 65.2464 126.674 65.1547 127.49 64.9612C128.307 64.7645 135.759 63.7023 135.759 63.7023L134.395 53.2667L131.297 54.247C130.985 54.3454 130.684 54.4765 130.398 54.6404V54.6372Z" fill="#455A64"/>
<path d="M160.38 78.3607C159.666 75.6559 158.085 69.489 158.085 69.489L154.83 50.3359L147.529 50.3949L146.922 49.113C146.794 48.8409 146.496 48.6868 146.201 48.7425L138.463 50.1228C138.109 50.1851 137.867 50.5195 137.916 50.8736L138.06 51.9096L132.165 54.0963L131.526 62.673L136.27 82.2064L136.562 84.957C136.631 85.6062 136.972 86.1996 137.503 86.5996L138.349 87.2356L159.738 82.2982L160.266 80.849C160.557 80.0524 160.597 79.1836 160.38 78.3607Z" fill="#455A64"/>
<path d="M137.972 86.7765L138.172 89.6681L161.036 84.3373L160.22 80.626L137.972 86.7765Z" fill="#455A64"/>
<path d="M158.115 82.439C158.066 82.4456 158.086 82.9701 158.155 83.616C158.227 84.2619 158.322 84.7799 158.371 84.7733C158.42 84.7668 158.4 84.2422 158.332 83.5963C158.259 82.9505 158.164 82.4325 158.115 82.439Z" fill="#171717"/>
<path d="M154.479 83.2816C154.43 83.2914 154.489 83.8225 154.61 84.4684C154.732 85.1142 154.866 85.629 154.915 85.6224C154.964 85.6126 154.905 85.0815 154.784 84.4356C154.663 83.7897 154.528 83.275 154.479 83.2816Z" fill="#171717"/>
<path d="M150.666 84.4061C150.617 84.4159 150.666 84.9208 150.778 85.5339C150.889 86.147 151.017 86.6387 151.066 86.6322C151.115 86.6224 151.066 86.1175 150.955 85.5044C150.843 84.8913 150.715 84.3995 150.67 84.4061H150.666Z" fill="#171717"/>
<path d="M145.906 85.5175C145.857 85.5273 145.922 86.0978 146.054 86.7928C146.181 87.4879 146.326 88.0452 146.375 88.0354C146.424 88.0255 146.358 87.4551 146.227 86.76C146.099 86.065 145.955 85.5076 145.906 85.5175Z" fill="#171717"/>
<path d="M141.45 86.5371C141.404 86.5502 141.509 87.0846 141.69 87.7272C141.87 88.3731 142.054 88.8845 142.1 88.8714C142.145 88.8583 142.041 88.3239 141.86 87.6813C141.68 87.0354 141.496 86.524 141.45 86.5371Z" fill="#171717"/>
<path d="M154.827 50.339L155.653 50.3554C156.656 50.3751 157.64 50.6505 158.505 51.1586L165.718 55.3683L163.967 44.9229L169.659 43.759C169.659 43.759 173.003 57.3419 172.993 59.4959C172.973 63.8367 169.636 65.3317 166.295 64.3055C165.298 64.0006 153.378 58.5747 153.378 58.5747L154.827 50.3423V50.339Z" fill="#455A64"/>
<path d="M157.925 70.7413C157.974 70.7347 157.446 66.6661 156.745 61.6532C156.046 56.6404 155.44 52.5816 155.391 52.5881C155.342 52.5947 155.869 56.6633 156.571 61.6795C157.269 66.6923 157.876 70.7511 157.925 70.7446V70.7413Z" fill="#171717"/>
<path d="M152.797 68.8235C152.797 68.8235 152.755 68.8661 152.689 68.9612C152.614 69.0727 152.518 69.2071 152.407 69.371C152.151 69.7513 151.804 70.2628 151.384 70.8857C150.519 72.161 149.299 73.9117 147.899 75.8002C146.496 77.6886 145.175 79.3606 144.201 80.5606C143.726 81.1442 143.339 81.6228 143.047 81.9769L142.735 82.3638C142.667 82.4523 142.63 82.5015 142.637 82.508C142.644 82.5146 142.686 82.472 142.762 82.3867C142.853 82.2884 142.962 82.167 143.096 82.0195C143.385 81.6982 143.794 81.2261 144.293 80.636C145.289 79.4557 146.63 77.7935 148.037 75.9018C149.44 74.0101 150.643 72.2463 151.486 70.9512C151.905 70.3054 152.24 69.7743 152.463 69.4071C152.564 69.2366 152.65 69.0956 152.718 68.9809C152.774 68.8825 152.8 68.83 152.797 68.8268V68.8235Z" fill="#171717"/>
<path d="M150.296 64.1777C150.296 64.1777 150.191 64.3187 150.033 64.5908C149.86 64.8924 149.633 65.276 149.365 65.7416C148.801 66.712 148.014 68.0497 147.109 69.5053C146.204 70.961 145.355 72.2593 144.732 73.1937C144.437 73.6395 144.188 74.0133 143.998 74.3018C143.824 74.5641 143.735 74.7149 143.745 74.7214C143.755 74.728 143.863 74.5936 144.053 74.3411C144.244 74.092 144.512 73.7215 144.834 73.2625C145.483 72.3445 146.352 71.0528 147.257 69.5971C148.161 68.1382 148.935 66.7907 149.473 65.8006C149.742 65.3055 149.955 64.9023 150.092 64.6236C150.233 64.3417 150.306 64.1843 150.296 64.1777Z" fill="#171717"/>
<path d="M147.342 50.4081C147.329 50.3818 146.857 50.6146 146.067 50.9162C145.276 51.2179 144.159 51.5654 142.886 51.7719C141.614 51.9785 140.441 52.0014 139.598 51.9654C138.752 51.9293 138.234 51.8572 138.228 51.8867C138.228 51.8998 138.356 51.926 138.588 51.9686C138.821 52.0113 139.165 52.0572 139.588 52.0899C140.437 52.1588 141.624 52.1522 142.913 51.9457C144.201 51.7359 145.329 51.3654 146.109 51.031C146.503 50.8638 146.814 50.7162 147.021 50.5982C147.23 50.4835 147.342 50.4179 147.335 50.4048L147.342 50.4081Z" fill="#171717"/>
<g opacity="0.3">
<path d="M151.604 70.7676C151.017 75.128 148.057 79.0917 144.044 80.8916L151.604 70.7676Z" fill="#171717"/>
</g>
<path d="M130.808 58.8469C130.759 58.86 131.339 61.4009 132.103 64.522C132.867 67.6465 133.523 70.1676 133.572 70.1578C133.618 70.1447 133.041 67.6038 132.277 64.4827C131.513 61.3615 130.857 58.8371 130.808 58.8502V58.8469Z" fill="#171717"/>
<path d="M112.475 49.4345C112.475 49.4345 113.18 49.287 113.527 49.8935C113.875 50.5 114.206 51.8868 114.173 52.5655C114.173 52.5655 115.173 52.7392 115.209 53.1491C115.245 53.5589 114.999 53.9588 114.039 53.9457C114.039 53.9457 113.399 55.1588 112.776 54.7293C112.154 54.2998 112.35 53.7982 112.35 53.7982C112.35 53.7982 111.78 54.7424 110.898 53.5294C110.898 53.5294 110.508 53.8343 110.072 53.7261C109.642 53.6212 109.468 53.3228 109.468 53.3228C109.468 53.3228 108.924 53.6212 108.606 53.2343C108.288 52.8474 107.242 51.2377 107.069 50.7164C106.895 50.1951 107.055 49.5033 107.498 49.2247C107.941 48.946 108.682 49.205 108.682 49.205C108.682 49.205 109.377 48.4772 110.226 49.0575C110.226 49.0575 111.472 47.9526 112.472 49.4312L112.475 49.4345Z" fill="#FFBF9D"/>
<path d="M108.498 50.6572C108.449 50.6769 108.659 51.2769 108.947 51.9949C109.091 52.3555 109.213 52.6833 109.291 52.9227C109.37 53.162 109.403 53.3161 109.429 53.3128C109.452 53.3128 109.462 53.1489 109.413 52.8932C109.364 52.6375 109.259 52.2965 109.114 51.9326C108.823 51.208 108.541 50.6441 108.498 50.6605V50.6572Z" fill="#FF9A6C"/>
<path d="M109.885 50.3227C109.839 50.3358 110.006 51.0702 110.275 51.9619C110.544 52.8537 110.849 53.5487 110.895 53.5291C110.941 53.5127 110.708 52.798 110.442 51.9095C110.173 51.021 109.931 50.3096 109.882 50.3227H109.885Z" fill="#FF9A6C"/>
<path d="M111.711 50.3427C111.662 50.3623 111.944 51.1197 112.163 52.0836C112.268 52.5655 112.37 53.0114 112.383 53.3228C112.4 53.6409 112.291 53.8179 112.318 53.831C112.331 53.8474 112.491 53.6736 112.508 53.3261C112.524 52.9819 112.442 52.536 112.337 52.0442C112.114 51.0607 111.754 50.323 111.711 50.3427Z" fill="#FF9A6C"/>
<path d="M113.793 50.5622C113.737 50.5786 113.976 51.3523 114.068 52.326C114.111 52.8112 114.101 53.2637 114.078 53.5751C114.052 53.8899 113.924 54.0505 113.944 54.0669C113.957 54.0866 114.137 53.9358 114.199 53.5948C114.258 53.2637 114.285 52.8145 114.242 52.3096C114.144 51.3031 113.826 50.5491 113.79 50.5622H113.793Z" fill="#FF9A6C"/>
</g>
<defs>
<clipPath id="clip0_52_1858">
<rect width="270" height="149" fill="white"/>
</clipPath>
</defs>
</svg>
