<svg width="6" height="144" viewBox="0 0 6 144" fill="none" xmlns="http://www.w3.org/2000/svg">
<path d="M3 144L5.88675 139H0.113249L3 144ZM2.5 0V1H3.5V0L2.5 0ZM2.5 3L2.5 5H3.5L3.5 3H2.5ZM2.5 7V9H3.5V7H2.5ZM2.5 11V13H3.5V11H2.5ZM2.5 15V17H3.5V15H2.5ZM2.5 19V21H3.5L3.5 19H2.5ZM2.5 23L2.5 25H3.5L3.5 23H2.5ZM2.5 27V29H3.5V27H2.5ZM2.5 31V33H3.5V31H2.5ZM2.5 35V37H3.5V35H2.5ZM2.5 39L2.5 41H3.5V39H2.5ZM2.5 43V45H3.5V43H2.5ZM2.5 47L2.5 49H3.5L3.5 47H2.5ZM2.5 51V53H3.5V51H2.5ZM2.5 55V57H3.5V55H2.5ZM2.5 59V61H3.5V59H2.5ZM2.5 63V65H3.5V63H2.5ZM2.5 67L2.5 69H3.5L3.5 67H2.5ZM2.5 71V73H3.5V71H2.5ZM2.5 75L2.5 77H3.5V75H2.5ZM2.5 79V81H3.5V79H2.5ZM2.5 83V85H3.5V83H2.5ZM2.5 87V89H3.5V87H2.5ZM2.5 91L2.5 93H3.5L3.5 91H2.5ZM2.5 95V97H3.5V95H2.5ZM2.5 99V101H3.5V99H2.5ZM2.5 103V105H3.5V103H2.5ZM2.5 107V109H3.5V107H2.5ZM2.5 111L2.5 113H3.5L3.5 111H2.5ZM2.5 115V117H3.5V115H2.5ZM2.5 119L2.5 121H3.5L3.5 119H2.5ZM2.5 123V125H3.5V123H2.5ZM2.5 127V129H3.5V127H2.5ZM2.5 131V133H3.5V131H2.5ZM2.5 135V137H3.5L3.5 135H2.5ZM2.5 139L2.5 141H3.5L3.5 139H2.5Z" fill="black"/>
</svg>
