<svg width="6" height="121" viewBox="0 0 6 121" fill="none" xmlns="http://www.w3.org/2000/svg">
<path d="M3 121L5.88675 116H0.113249L3 121ZM2.5 0V2.52083H3.5V0L2.5 0ZM2.5 7.5625L2.5 12.6042H3.5L3.5 7.5625H2.5ZM2.5 17.6458L2.5 22.6875H3.5L3.5 17.6458H2.5ZM2.5 27.7292V32.7708H3.5V27.7292H2.5ZM2.5 37.8125L2.5 42.8542H3.5L3.5 37.8125H2.5ZM2.5 47.8958V52.9375H3.5L3.5 47.8958H2.5ZM2.5 57.9792L2.5 63.0208H3.5L3.5 57.9792H2.5ZM2.5 68.0625L2.5 73.1042H3.5V68.0625H2.5ZM2.5 78.1458L2.5 83.1875H3.5L3.5 78.1458H2.5ZM2.5 88.2292L2.5 93.2708H3.5L3.5 88.2292H2.5ZM2.5 98.3125V103.354H3.5V98.3125H2.5ZM2.5 108.396L2.5 113.437H3.5L3.5 108.396H2.5Z" fill="black"/>
</svg>
