<svg width="85" height="85" viewBox="0 0 85 85" fill="none" xmlns="http://www.w3.org/2000/svg">
<rect width="85" height="85" rx="42.5" fill="#283671"/>
<path d="M26 34C26 33.7689 26.0722 33.5811 26.2167 33.4367C26.3611 33.2923 26.5489 33.22 26.78 33.22H45.9333L40.82 28.1067C40.6467 27.9334 40.56 27.7311 40.56 27.5C40.56 27.2689 40.6467 27.0811 40.82 26.9367C40.9933 26.7923 41.1956 26.72 41.4267 26.72C41.6578 26.72 41.86 26.7778 42.0333 26.8934L48.5333 33.3934C48.6489 33.5667 48.7067 33.7689 48.7067 34C48.7067 34.2311 48.6489 34.4334 48.5333 34.6067L42.0333 41.1067C41.86 41.2223 41.6578 41.28 41.4267 41.28C41.1956 41.28 40.9933 41.2078 40.82 41.0634C40.6467 40.9189 40.56 40.7311 40.56 40.5C40.56 40.2689 40.6467 40.0667 40.82 39.8934L45.9333 34.78H26.78C26.5489 34.78 26.3611 34.7078 26.2167 34.5634C26.0722 34.4189 26 34.2311 26 34Z" fill="white"/>
</svg>
